# xmcd CD database file
#
# Track frame offsets:
#	150
#	38056
#	67457
#	96698
#	124813
#	150854
#	170185
#	185702
#	205621
#	223377
#	245016
#	267421
#	287188
#	304232
#	323842
#
# Disc length: 4561 seconds
#
# Revision: 0
# Processed by: cddbd v1.5.2PL0 Copyright (c) Steve Scherf et al.
# Submitted via: CDex 1.70beta2
#
DISCID=f711cf0f
DTITLE=Various Artist - Sound of Jazz FM 2009 Vol. 2  CD-2
DYEAR=2009
DGENRE=Jazz
TTITLE0=What's going on_Harvey Manson
TTITLE1=Every girl (Wants my guy)_Aretha Franklin
TTITLE2=A change of heart_David Sanborn
TTITLE3=Getting to the good part_Herbie Hancock
TTITLE4=When we get by_D'Angelo
TTITLE5=Deep into it_Larry Carlton
TTITLE6=Outta the funk_James Day
TTITLE7=Happy song_Ronnie Forster
TTITLE8=Hey now_Adriana Evans
TTITLE9=Gently_Toshi Kubota
TTITLE10=Stop, look, listen (to your heart)_Boney James
TTITLE11=When I fall in love_chris Botti
TTITLE12=Comfort zone_ Trish Andrews
TTITLE13=Buttercup_Carl Anderson
TTITLE14=All this love thatI'm giving_Gwen McCrae
EXTD=YEAR: 2009
EXTT0=
EXTT1=
EXTT2=
EXTT3=
EXTT4=
EXTT5=
EXTT6=
EXTT7=
EXTT8=
EXTT9=
EXTT10=
EXTT11=
EXTT12=
EXTT13=
EXTT14=
PLAYORDER=
